<?xml version="1.0" encoding="utf-8"?>
<!-- Generator: Adobe Illustrator 13.0.0, SVG Export Plug-In . SVG Version: 6.00 Build 14948)  -->
<!DOCTYPE svg PUBLIC "-//W3C//DTD SVG 1.1//EN" "http://www.w3.org/Graphics/SVG/1.1/DTD/svg11.dtd">
<svg version="1.1" id="Layer_1" xmlns="http://www.w3.org/2000/svg" xmlns:xlink="http://www.w3.org/1999/xlink" x="0px" y="0px"
	 width="648px" height="648px" viewBox="0 0 648 648" enable-background="new 0 0 648 648" xml:space="preserve">
<path d="M324,291.6c-17.894,0-32.4,14.506-32.4,32.4c0,17.895,14.506,32.4,32.4,32.4c17.895,0,32.4-14.506,32.4-32.4
	C356.4,306.106,341.895,291.6,324,291.6z M315.399,337.578c-5.478,1.221-11.15,0.788-17.887,0.788
	c0.079-4.57,0.314-8.825,0.314-13.278c0-4.373-0.157-9.692-0.354-14.538h15.365l0.197,2.481c-3.624-0.276-7.801-0.512-11.11-0.512
	c-0.04,2.955-0.119,7.091-0.119,10.717H310l-0.591,2.125c-2.286-0.156-4.886-0.234-7.604-0.354
	c0.079,4.219,0.157,8.787,0.236,11.663c6.146,0,9.22-0.63,14.658-2.128C316.503,335.096,315.557,337.264,315.399,337.578z
	 M344.358,338.366h-2.364l-8.195-22.34c-3.703,8.59-7.21,18.083-8.864,22.34h-2.284c-1.971-8.038-5.083-19.345-7.408-27.816h4.649
	c0.591,3.466,2.758,13.317,4.608,21.079c1.932-4.374,6.266-15.051,7.96-19.109c0.433-0.236,2.364-1.301,2.797-1.537
	c2.403,6.658,4.729,12.529,7.645,19.937c1.693-6.975,3.625-13.436,5.278-20.37h4.138
	C350.229,317.879,346.053,331.708,344.358,338.366z"/>
</svg>
