<?xml version="1.0" encoding="utf-8"?>
<!-- Generator: Adobe Illustrator 13.0.0, SVG Export Plug-In . SVG Version: 6.00 Build 14948)  -->
<!DOCTYPE svg PUBLIC "-//W3C//DTD SVG 1.1//EN" "http://www.w3.org/Graphics/SVG/1.1/DTD/svg11.dtd">
<svg version="1.1" id="Layer_1" xmlns="http://www.w3.org/2000/svg" xmlns:xlink="http://www.w3.org/1999/xlink" x="0px" y="0px"
	 width="648px" height="648px" viewBox="0 0 648 648" enable-background="new 0 0 648 648" xml:space="preserve">
<path d="M324,291.6c-17.894,0-32.4,14.506-32.4,32.4c0,17.895,14.506,32.4,32.4,32.4c17.895,0,32.4-14.506,32.4-32.4
	C356.4,306.106,341.895,291.6,324,291.6z M326.723,323.85l18.452-19.426c4.757,5.142,7.665,12.019,7.665,19.576
	c0,7.482-2.851,14.3-7.523,19.425L326.723,323.85z M324,326.717l14.205,14.956h-28.411L324,326.717z M324,320.983l-14.206-14.956
	h28.411L324,320.983z M342.717,302.061h-37.434c5.038-4.302,11.573-6.9,18.717-6.9S337.68,297.759,342.717,302.061z
	 M302.826,304.423l0.942,0.993l17.509,18.434l-18.593,19.575c-4.673-5.125-7.523-11.942-7.523-19.425
	C295.161,316.443,298.069,309.566,302.826,304.423z M304.938,345.639h38.125c-5.082,4.48-11.754,7.201-19.062,7.201
	C316.692,352.84,310.02,350.119,304.938,345.639z"/>
</svg>
